HIERARCHY
ROOT Hips
{
	OFFSET 0.000000 0.000000 0.000000
	CHANNELS 6 Xposition Yposition Zposition Zrotation Yrotation Xrotation 
	JOINT LHipJoint
	{
		OFFSET 0.000000 0.000000 0.000000
		CHANNELS 3 Zrotation Yrotation Xrotation
		JOINT LeftUpLeg
		{
			OFFSET 1.363060 -1.794630 0.839290
			CHANNELS 3 Zrotation Yrotation Xrotation
			JOINT LeftLeg
			{
				OFFSET 2.448110 -6.726130 0.000000
				CHANNELS 3 Zrotation Yrotation Xrotation
				JOINT LeftFoot
				{
					OFFSET 2.562200 -7.039590 0.000000
					CHANNELS 3 Zrotation Yrotation Xrotation
					JOINT LeftToeBase
					{
						OFFSET 0.157640 -0.433110 2.322550
						CHANNELS 3 Zrotation Yrotation Xrotation
						End Site
						{
							OFFSET 0.000000 0.000000 0.000000
						}
					}
				}
			}
		}
	}
	JOINT RHipJoint
	{
		OFFSET 0.000000 0.000000 0.000000
		CHANNELS 3 Zrotation Yrotation Xrotation
		JOINT RightUpLeg
		{
			OFFSET -1.305520 -1.794630 0.839290
			CHANNELS 3 Zrotation Yrotation Xrotation
			JOINT RightLeg
			{
				OFFSET -2.542530 -6.985550 0.000000
				CHANNELS 3 Zrotation Yrotation Xrotation
				JOINT RightFoot
				{
					OFFSET -2.568260 -7.056230 0.000000
					CHANNELS 3 Zrotation Yrotation Xrotation
					JOINT RightToeBase
					{
						OFFSET -0.164730 -0.452590 2.363150
						CHANNELS 3 Zrotation Yrotation Xrotation
						End Site
						{
							OFFSET 0.000000 0.000000 0.000000
						}
					}
				}
			}
		}
	}
	JOINT LowerBack
	{
		OFFSET 0.000000 0.000000 0.000000
		CHANNELS 3 Zrotation Yrotation Xrotation
		JOINT Spine
		{
			OFFSET 0.028270 2.035590 -0.193380
			CHANNELS 3 Zrotation Yrotation Xrotation
			JOINT Spine1
			{
				OFFSET 0.056720 2.048850 -0.042750
				CHANNELS 3 Zrotation Yrotation Xrotation
				JOINT Neck
				{
					OFFSET 0.000000 0.000000 0.000000
					CHANNELS 3 Zrotation Yrotation Xrotation
					JOINT Neck1
					{
						OFFSET -0.054170 1.746240 0.172020
						CHANNELS 3 Zrotation Yrotation Xrotation
						JOINT Head
						{
							OFFSET 0.104070 1.761360 -0.123970
							CHANNELS 3 Zrotation Yrotation Xrotation
							End Site
							{
								OFFSET 0.000000 0.000000 0.000000
							}
						}
					}
				}
				JOINT LeftShoulder
				{
					OFFSET 0.000000 0.000000 0.000000
					CHANNELS 3 Zrotation Yrotation Xrotation
					JOINT LeftArm
					{
						OFFSET 3.362410 1.200890 -0.311210
						CHANNELS 3 Zrotation Yrotation Xrotation
						JOINT LeftForeArm
						{
							OFFSET 4.983000 -0.000000 -0.000000
							CHANNELS 3 Zrotation Yrotation Xrotation
							JOINT LeftHand
							{
								OFFSET 3.483560 -0.000000 -0.000000
								CHANNELS 3 Zrotation Yrotation Xrotation
								JOINT LeftFingerBase
								{
									OFFSET 0.000000 0.000000 0.000000
									CHANNELS 3 Zrotation Yrotation Xrotation
									JOINT LeftHandIndex1
									{
										OFFSET 0.715260 -0.000000 -0.000000
										CHANNELS 3 Zrotation Yrotation Xrotation
										End Site
										{
											OFFSET 0.000000 0.000000 0.000000
										}
									}
								}
								JOINT LThumb
								{
									OFFSET 0.000000 0.000000 0.000000
									CHANNELS 3 Zrotation Yrotation Xrotation
									End Site
									{
										OFFSET 0.000000 0.000000 0.000000
									}
								}
							}
						}
					}
				}
				JOINT RightShoulder
				{
					OFFSET 0.000000 0.000000 0.000000
					CHANNELS 3 Zrotation Yrotation Xrotation
					JOINT RightArm
					{
						OFFSET -3.136600 1.374050 -0.404650
						CHANNELS 3 Zrotation Yrotation Xrotation
						JOINT RightForeArm
						{
							OFFSET -5.241900 -0.000000 -0.000000
							CHANNELS 3 Zrotation Yrotation Xrotation
							JOINT RightHand
							{
								OFFSET -3.444170 -0.000000 -0.000000
								CHANNELS 3 Zrotation Yrotation Xrotation
								JOINT RightFingerBase
								{
									OFFSET 0.000000 0.000000 0.000000
									CHANNELS 3 Zrotation Yrotation Xrotation
									JOINT RightHandIndex1
									{
										OFFSET -0.622530 -0.000000 -0.000000
										CHANNELS 3 Zrotation Yrotation Xrotation
										End Site
										{
											OFFSET 0.000000 0.000000 0.000000
										}
									}
								}
								JOINT RThumb
								{
									OFFSET 0.000000 0.000000 0.000000
									CHANNELS 3 Zrotation Yrotation Xrotation
									End Site
									{
										OFFSET 0.000000 0.000000 0.000000
									}
								}
							}
						}
					}
				}
			}
		}
	}
}
MOTION
Frames: 12
Frame Time: 0.008333
8.941218 17.799450 8.958209 179.491587 -1.565212 -157.318308 9.010206 1.435039 -2.260614 -28.585922 -16.721967 -15.848839 -0.669700 6.224035 15.175290 -0.093355 -7.835896 -16.585847 2.049800 -8.969100 -25.698600 -13.815148 -2.014438 -0.835794 19.738522 23.373562 -40.997206 1.056514 -11.190472 21.584583 -0.530656 -8.391801 -19.938367 -4.143000 12.348200 -36.975300 -3.325719 -3.013288 -16.977697 1.739269 -3.636501 -3.973758 0.058329 -2.781344 15.264760 -10.194479 -3.855459 -4.105184 10.582755 -6.115636 28.000849 1.903900 -1.130900 6.602100 16.986839 -1.297085 0.468791 -103.057561 -6.681669 23.717268 19.111072 -24.304987 -5.483798 -1.548312 0.317614 -0.670087 20.746608 -12.004494 -4.969100 -7.125000 0.000000 0.000000 -3.430600 16.792300 2.297300 -11.373919 0.311123 0.403913 98.882752 -8.079782 5.203724 -13.934689 25.233926 -4.062768 0.419490 3.887029 -0.417573 -10.085192 -47.402874 8.261700 7.125000 0.000000 0.000000 61.283700 -74.563700 -46.497700 
8.951193 17.787830 8.854506 179.484367 -1.805796 -157.322147 9.027078 1.445223 -2.271693 -28.664647 -16.560797 -15.472348 -0.648530 6.194913 15.221187 -0.118009 -8.149120 -16.692422 2.065600 -9.001500 -25.800000 -13.814226 -2.028244 -0.776904 19.661021 23.556707 -40.453141 1.223141 -10.498923 19.771188 -0.507849 -8.260781 -19.401833 -4.170700 12.384100 -37.104600 -3.286078 -2.751654 -17.185216 1.622012 -3.335062 -4.113926 -0.177155 -2.593776 14.686553 -9.691661 -3.885513 -2.534241 10.749463 -6.464271 27.798060 1.819900 -1.244300 6.158800 17.057766 -1.364293 0.483976 -102.521285 -5.985980 24.629858 19.117640 -24.375468 -5.520839 -1.553713 0.342017 -0.415486 20.809119 -12.187500 -5.065400 -7.125000 0.000000 0.000000 -3.391300 16.572300 2.287200 -11.401436 0.153173 0.429474 99.500669 -9.501755 4.542625 -13.994466 25.387435 -4.097539 0.392105 3.938677 -0.629862 -10.146863 -48.456072 8.425900 7.125000 0.000000 0.000000 65.083900 -74.990100 -50.332000 
8.965773 17.779060 8.755844 179.412644 -1.892629 -157.286545 8.990916 1.487459 -2.285555 -28.749027 -16.389553 -15.164450 -0.635149 6.188371 15.279292 -0.120375 -8.327887 -16.844573 2.297700 -9.460500 -27.246600 -13.884433 -2.004259 -0.793610 19.609384 23.745593 -39.974094 1.350345 -9.888656 18.187608 -0.473371 -8.375631 -18.706570 -4.324700 12.580400 -37.817500 -3.166890 -3.197210 -16.973681 1.785058 -3.884428 -3.858546 0.014423 -2.938210 15.816237 -10.127223 -4.087427 -5.223319 10.324887 -6.199731 28.147943 1.814700 -1.195200 6.904000 16.960017 -1.273575 0.450626 -102.811804 -7.757076 23.543363 19.089859 -24.228064 -5.440863 -1.544250 0.344646 -0.455527 20.823474 -12.058540 -5.017400 -7.125000 0.000000 0.000000 -3.382600 16.703900 2.271600 -11.353095 0.409124 0.406939 98.714927 -7.475602 4.973383 -13.609449 24.804105 -3.903335 0.434909 3.946696 -0.309968 -10.352614 -48.139599 8.572100 7.125000 0.000000 0.000000 63.868800 -74.969000 -49.219700 
8.980353 17.772264 8.651702 179.368719 -1.943399 -157.356544 9.000842 1.506571 -2.294430 -28.888334 -16.252869 -14.674528 -0.625933 6.148293 15.307905 -0.086323 -8.359484 -17.106009 2.471800 -9.786500 -28.288100 -13.879586 -2.017257 -0.750246 19.594578 23.949009 -39.501729 1.436485 -9.416365 16.979243 -0.457419 -8.460733 -18.376601 -4.359600 12.624200 -37.977500 -3.345276 -2.950324 -17.331515 1.674826 -3.532811 -3.953628 -0.066280 -2.757446 15.477481 -9.577618 -4.098228 -3.674084 10.242790 -6.434427 28.137900 1.641200 -1.244300 6.492900 17.020518 -1.312092 0.477547 -102.415803 -7.032872 24.540767 19.091348 -24.283990 -5.474249 -1.532561 0.260230 -0.912666 20.587993 -11.442391 -4.685900 -7.125000 0.000000 0.000000 -3.527900 17.460000 2.311200 -11.338381 0.259100 0.448733 99.361676 -8.600092 3.783207 -13.523002 24.724350 -3.863240 0.475772 3.891220 0.188190 -10.494812 -47.299521 8.586800 7.125000 0.000000 0.000000 60.696000 -74.685800 -46.113000 
8.995810 17.762727 8.541421 179.300481 -2.079433 -157.474370 8.983398 1.540835 -2.293252 -29.030322 -16.086837 -14.146979 -0.603836 6.121287 15.381190 -0.088598 -8.569275 -17.255712 2.407600 -9.668000 -27.908100 -13.890283 -2.033524 -0.741523 19.796398 23.900627 -38.923270 1.491626 -9.019786 16.028407 -0.446158 -8.523954 -18.112506 -4.443200 12.727900 -38.358100 -3.384245 -3.037287 -17.429023 1.704527 -3.638883 -3.943983 0.004373 -2.817935 15.595007 -9.649533 -4.020052 -3.554540 10.241538 -6.332581 28.223631 1.663400 -1.188900 6.478100 17.017388 -1.308455 0.487169 -102.451947 -6.951179 24.493484 19.140731 -24.355248 -5.507045 -1.506501 0.190984 -1.236976 20.293449 -10.922341 -4.386600 -7.125000 0.000000 0.000000 -3.732500 18.104900 2.392900 -11.309816 0.233334 0.467658 99.245292 -8.689602 3.341680 -13.292697 24.410332 -3.749154 0.504794 3.906408 0.739815 -10.427952 -47.420132 8.544200 7.125000 0.000000 0.000000 61.225300 -74.714600 -46.607100 
9.021133 17.762398 8.466548 179.010975 -1.971893 -157.820478 8.980553 1.590092 -2.284083 -29.350339 -15.850576 -13.690313 -0.563386 6.177518 15.667184 -0.084211 -8.678232 -17.355983 2.356200 -9.571600 -27.600300 -13.898343 -2.026353 -0.725703 19.625932 24.145985 -38.347625 1.527775 -8.761965 15.438668 -0.419161 -9.019681 -17.782545 -4.752400 13.099400 -39.741600 -3.864394 -3.051954 -16.741268 1.675060 -3.549532 -3.982922 0.310635 -2.798214 15.039541 -9.643599 -3.922750 -3.027248 10.335738 -6.297359 28.057534 1.677700 -1.163000 6.325900 17.050822 -1.350954 0.488139 -102.325321 -6.733709 24.665824 19.195850 -24.442253 -5.550945 -1.507217 0.253157 -1.386527 20.271847 -11.578642 -4.661500 -7.125000 0.000000 0.000000 -3.773400 17.338400 2.482800 -11.300937 0.227709 0.473861 99.249388 -9.083225 3.061739 -13.250478 24.332810 -3.717730 0.468594 3.966491 0.870267 -9.857499 -48.380442 8.170000 7.125000 0.000000 0.000000 65.136000 -74.860400 -50.237700 
9.040537 17.754834 8.356815 178.949482 -2.048683 -157.951425 8.966273 1.627623 -2.275712 -29.455988 -15.642511 -13.237242 -0.539566 6.168806 15.779313 -0.079602 -8.836636 -17.500238 2.601000 -10.019300 -29.039200 -13.900412 -2.045107 -0.718310 19.949097 24.072164 -37.708566 1.554491 -8.482233 14.827989 -0.410176 -9.115854 -17.570251 -4.833700 13.194100 -40.099300 -3.916453 -3.040235 -16.646335 1.676637 -3.536025 -4.026234 0.403713 -2.792379 14.841288 -9.956610 -4.180832 -3.064213 10.550528 -6.662396 28.450434 1.811000 -1.318600 6.501300 17.044885 -1.338662 0.475013 -102.227343 -6.571550 24.654192 19.157571 -24.405081 -5.526560 -1.559734 0.349575 -1.051325 20.838122 -12.388807 -5.163000 -7.125000 0.000000 0.000000 -3.380100 16.328100 2.297500 -11.316475 0.206141 0.461764 99.232049 -9.536446 2.940433 -13.264966 24.371141 -3.719939 0.426855 3.989954 0.839912 -9.353982 -48.794926 7.780800 7.125000 0.000000 0.000000 66.972300 -74.799800 -51.831200 
9.049635 17.732909 8.208933 179.171198 -2.227779 -157.720372 8.930123 1.645450 -2.279239 -29.289362 -15.550542 -12.871201 -0.536752 6.119134 15.748526 -0.059387 -8.986814 -17.759561 2.805600 -10.373500 -30.195000 -13.910847 -2.088117 -0.743854 20.830266 23.571082 -37.349948 1.560683 -8.276693 14.387797 -0.424787 -8.589867 -17.451720 -4.631400 12.956300 -39.205000 -3.384533 -3.147708 -17.443557 1.768064 -3.788003 -3.926458 0.196958 -2.919926 15.758026 -9.922432 -4.177320 -4.125687 10.189711 -6.388119 28.726933 1.723500 -1.201800 6.788700 17.004169 -1.250776 0.479015 -102.387836 -7.081578 24.060070 19.141486 -24.358757 -5.487865 -1.599449 0.340138 -0.953126 21.289502 -12.269870 -5.233500 -7.125000 0.000000 0.000000 -3.033100 16.423000 2.054700 -11.282163 0.257784 0.468608 98.908099 -8.912591 2.941315 -13.053244 24.094770 -3.621976 0.454213 3.983967 1.094103 -9.524367 -48.537349 7.898600 7.125000 0.000000 0.000000 65.957600 -74.783900 -50.894300 
9.065531 17.716685 8.097665 179.304725 -2.263160 -157.455801 8.907927 1.636495 -2.279550 -29.068431 -15.594455 -12.959847 -0.501996 6.274140 16.170571 -0.031697 -9.047230 -18.033589 2.660800 -10.124600 -29.381300 -13.934325 -2.112508 -0.755715 21.416500 23.287705 -37.543509 1.546584 -8.365681 14.606935 -0.422512 -8.409996 -17.149144 -4.663800 12.994800 -39.349200 -3.031405 -3.323415 -17.883658 1.879576 -4.111471 -3.861745 0.160740 -3.079507 16.379987 -10.184739 -4.114290 -5.166882 9.993264 -6.060701 28.936124 1.758000 -1.080000 7.087600 16.964686 -1.178140 0.470573 -102.712113 -7.457138 23.378927 19.245146 -24.466650 -5.526147 -1.607961 0.292237 -1.536871 21.323209 -12.086910 -5.155500 -7.125000 0.000000 0.000000 -2.995200 16.650100 2.014200 -11.258411 0.328142 0.466922 98.468824 -8.178400 3.163773 -12.835863 23.784356 -3.522417 0.507064 3.971078 1.453279 -9.882994 -48.123676 8.162404 7.125000 0.000000 0.000000 64.260700 -74.784500 -49.370200 
9.084386 17.702653 7.989138 179.422644 -2.372865 -157.338379 8.924064 1.633071 -2.273233 -28.892577 -15.555289 -12.946927 -0.451809 6.421473 16.623564 -0.033798 -9.249951 -18.197205 2.390100 -9.635200 -27.803300 -13.915378 -2.166272 -0.735526 22.082106 22.885177 -37.540988 1.515496 -8.461591 14.902769 -0.407908 -8.251612 -16.387428 -5.097900 13.493300 -41.244200 -2.962978 -2.997030 -18.323476 1.781586 -3.748002 -4.025917 -0.014869 -2.857651 15.815174 -9.570603 -4.121828 -3.559831 9.942552 -6.305375 28.871539 1.581300 -1.122100 6.657700 17.048705 -1.193104 0.487205 -102.354790 -6.441581 23.980855 19.311596 -24.640583 -5.619767 -1.523976 0.239938 -1.061847 20.507412 -11.521858 -4.689500 -7.125000 0.000000 0.000000 -3.592800 17.401800 2.358500 -11.265142 0.176701 0.491307 99.136484 -9.557509 2.296979 -12.911227 23.947578 -3.562324 0.514685 3.932591 1.680675 -9.869777 -47.704052 8.096700 7.125000 0.000000 0.000000 62.703300 -74.610600 -47.797500 
9.107407 17.690704 7.882036 179.303523 -2.349694 -157.428512 8.915965 1.656470 -2.256656 -29.006395 -15.526590 -12.685046 -0.398923 6.553393 17.069951 -0.018147 -9.390243 -18.424826 2.267100 -9.401500 -27.059500 -13.928780 -2.192586 -0.738039 22.400425 22.739730 -37.068071 1.486769 -8.434206 14.963145 -0.390317 -8.192489 -15.539868 -5.317300 13.732500 -42.176300 -3.058349 -3.044815 -18.150072 1.812054 -3.804908 -4.062846 0.123712 -2.888293 15.597762 -9.583901 -3.929536 -3.376648 9.805860 -6.028348 28.600463 1.542300 -1.015200 6.529400 17.047153 -1.186696 0.492099 -102.452228 -6.226951 23.849218 19.248767 -24.555344 -5.579711 -1.543854 0.259834 -1.316470 20.635084 -11.772395 -4.832500 -7.125000 0.000000 0.000000 -3.501800 17.094300 2.322100 -11.243342 0.182777 0.493879 98.967469 -9.754671 2.104873 -12.861126 23.867613 -3.536747 0.516365 3.916789 1.869159 -9.675500 -47.365457 7.896000 7.125000 0.000000 0.000000 61.641800 -74.396800 -46.633200 
9.127906 17.676014 7.773509 179.184477 -2.356673 -157.356610 8.918335 1.664501 -2.249835 -29.117534 -15.634113 -12.678700 -0.341032 6.768762 17.668180 0.023144 -9.412098 -18.766942 2.483700 -9.808300 -28.358100 -13.944545 -2.190750 -0.761472 22.559948 22.683172 -36.726188 1.462253 -8.412249 15.001720 -0.379549 -8.080855 -14.857497 -4.877000 13.243900 -40.288400 -3.037973 -3.101152 -18.056773 1.800432 -3.852390 -3.996749 0.063501 -2.934654 15.876702 -9.593991 -4.156196 -4.673658 9.827717 -6.145574 28.944967 1.569100 -1.058800 6.972200 17.013355 -1.108713 0.461423 -102.312008 -6.666800 23.880380 19.176768 -24.433425 -5.514200 -1.605985 0.327666 -1.685011 21.194574 -12.482785 -5.299100 -7.125000 0.000000 0.000000 -3.108000 16.197000 2.120900 -11.256102 0.271477 0.472142 98.997010 -9.090672 1.791942 -12.746967 23.698082 -3.481884 0.534887 3.924164 2.117231 -9.718558 -47.495752 7.946300 7.125000 0.000000 0.000000 62.083300 -74.468800 -47.098200 
